# xmcd
#
# Track frame offsets: 
#        150
#        12871
#        25160
#        37634
#        52432
#        67194
#        83425
#        102982
#        119061
#        137144
#        158923
#        173582
#        186429
#        204570
#        218439
#        233115
#        248158
#        263883
#        280878
#        296843
#
# Disc length: 4157 seconds
#
# Revision: 4
# Processed by: cddbd v1.5.2PL0 Copyright (c) Steve Scherf et al.
# Submitted via: ExactAudioCopy v0.99pb5
#
DISCID=25103b14
DTITLE=Various Artist - Sounds Like Nashville - CD 3
DYEAR=2015
DGENRE=Country
TTITLE0=Vince Gill - The reason why
TTITLE1=Easton Corbin - All over the road
TTITLE2=Mary Sarah and Willie Nelson - Crazy
TTITLE3=Alan Jackson - You go your way
TTITLE4=Josh Turner - All over me
TTITLE5=Lee Ann Womack - Either way
TTITLE6=Gary Allan - It ain't the whiskey
TTITLE7=Sunny Sweeney - From a table away
TTITLE8=Chris Stapleton - What are you listening to
TTITLE9=Jamey Johnson - In color
TTITLE10=Randy Houser - Lowdown and lonesome
TTITLE11=Holly Williams - Mama
TTITLE12=Randy Montana - 1,000 faces
TTITLE13=Joe Nichols - Gimmie that girl
TTITLE14=Wes Mack feat. Carly McKillip - Duet
TTITLE15=Randy Rogers Band - Fuzzy
TTITLE16=Jon Pardi - Up all night
TTITLE17=Martina McBride - I'm gonna love you through it
TTITLE18=JT Hodges - Sleepy little town
TTITLE19=Joel Crouse - If you want some
EXTD=
EXTT0=
EXTT1=
EXTT2=
EXTT3=
EXTT4=
EXTT5=
EXTT6=
EXTT7=
EXTT8=
EXTT9=
EXTT10=
EXTT11=
EXTT12=
EXTT13=
EXTT14=
EXTT15=
EXTT16=
EXTT17=
EXTT18=
EXTT19=
PLAYORDER=
